<?xml version="1.0" encoding="UTF-8"?>
<svg id="Layer_1" xmlns="http://www.w3.org/2000/svg" version="1.1" viewBox="0 0 491.52 491.52">
  <!-- Generator: Adobe Illustrator 30.2.1, SVG Export Plug-In . SVG Version: 2.1.1 Build 1)  -->
  <defs>
    <style>
      .st0 {
        fill: #010201;
      }

      .st1 {
        fill: #447043;
      }

      .st2 {
        fill: #436f43;
      }
    </style>
  </defs>
  <path class="st1" d="M74.67,231.9c-1.77.63-3.67.32-5.59.2-.64-.04-1.19.17-1.9.03-2-.41-2.93.36-3.82.04-1.18-.41-2.29.06-3.41-.01-1.01-.07-3.04-.07-4.05-.02l-5.97.26c.08,1.79-.16,3.55-.17,5.31l-.06,14.09c0,1.78.38,3.46.2,5.26-.09.96.13,1.82.25,2.66-.73.58-.7-3.23-.72-3.63l-.2-5.06v-11.01c0-1.81.05-3.52.24-5.3l.32-2.94,11.89-.05,4.79-.03,7.46-.02c.32,0,.58.1.73.23Z"/>
  <path class="st1" d="M111.64,231.85c-.4.79-2.95.18-3.06.23-.3.12-5.49,0-5.75.02l-2.9.14c-.7.03-1.36.18-1.76-.38.24-.12.55-.19.95-.18,4.27.12,8.42-.18,12.53.17Z"/>
  <path class="st1" d="M136.08,231.79c-1.75.87-3.82.19-5.72.33-.97.07-1.81.08-2.78.03-1.55-.07-3.26.37-4.71-.37l12-.1c.46,0,.99-.29,1.2.09Z"/>
  <path class="st1" d="M122.2,231.85c-.02.23-.17.39-.35.45-.2.07-.57-.39-.7-.31-.36.32-1.03.09-1.41.11-1.46.08-2.8.21-4.28.09-1.07-.09-2.31.45-3.11-.34,2.63-.42,5.32.05,8.11-.18.64-.05,1.23-.04,1.72.18Z"/>
  <path class="st1" d="M89.31,231.82c-1.52.78-3.29.42-5.07.29-.93-.07-2.1.4-2.88-.33,2.63.02,5.33-.27,7.95.04Z"/>
  <path class="st1" d="M150.48,231.78c-.11.69-1.01.07-1.4.21-.81.3-1.33.13-2.12.1l-2.45-.09c-.44-.02-1,.32-1.23-.22.98-.43,2.18-.12,3.35-.04,1.36.09,2.63-.16,3.85.04Z"/>
  <path class="st1" d="M78.99,259.64l-2.55.02c-.63,0-1.14.24-1.87-.04-.47-.18-1.13.19-1.61.08.04-.29.31-.5.71-.5h4.8c.19,0,.33.12.45.19.07.04.17.12.06.25Z"/>
  <path class="st1" d="M67.23,259.64c-.76.39-1.67.1-2.51,0-.35-.04-.95.23-1.33.02-.64-.65,4.65-.68,3.84-.02Z"/>
  <path class="st1" d="M140.88,231.79c-.52.61-1.44.19-2.21.27s-1.64.54-2.1-.2c-.48-.14,5.18-.33,4.31-.07Z"/>
  <path class="st1" d="M53.32,259.65c-.87.24-1.93.39-2.76-.02-.41-.73,3.34-.6,2.76.02ZM51.36,259.56c0-.07-.05-.12-.12-.12s-.12.05-.12.12.05.12.12.12.12-.05.12-.12Z"/>
  <path class="st1" d="M126.02,259.65c-.82,0-1.68.2-2.46,0-.48-.6,2.92-.66,2.46,0ZM125.04,259.56c0-.07-.05-.12-.12-.12s-.12.05-.12.12.05.12.12.12.12-.05.12-.12Z"/>
  <path class="st1" d="M137.75,259.65c-.35.03-.78,0-1.11,0-.6,0-.98.42-1.52.04.41-.35,2.66-.96,2.63-.04Z"/>
  <path class="st1" d="M109.69,259.69c-.35,0-2.62-.04-2.62-.04,0-.09-.08-.26-.03-.33.07-.09.27-.14.46-.14h1.72c.2,0,.39.1.46.19.06.07.04.21.02.32Z"/>
  <path class="st1" d="M80.88,231.78c-.5.71-1.59,0-3.15.24-.18.03-.28-.1-.21-.24,1.06-.11,2.33-.32,3.36,0Z"/>
  <path class="st1" d="M102.95,259.21c.03.13.12.32.1.43-.79.53-1.54-.03-2.23.03-.06-.7,1.44-.46,2.12-.47Z"/>
  <path class="st1" d="M62.62,259.68c-.62.3-1.49.03-2.18.01.03-.56.65-.49,1.11-.51.4-.01.87.05,1.06.5Z"/>
  <path class="st1" d="M77.04,231.84c-.55.45-1.42.61-1.91.04.54-.31,1.37-.31,1.91-.04Z"/>
  <path class="st1" d="M56.88,259.65c-.53.18-1.14.32-1.67.05-.02-.49.41-.54.83-.51.34.02.8.02.84.46Z"/>
  <path class="st1" d="M91.94,231.87c-.57.41-1.48.61-1.93-.02.6-.19,1.36-.29,1.93.02Z"/>
  <path class="st1" d="M97.95,259.68c-.54,0-.97.06-1.49-.03-.09-.41.38-.46.64-.48.43-.03.9,0,.85.51Z"/>
  <path class="st1" d="M105.65,259.64c-.48.04-.98.35-1.5.09.04-.06-.12-.38-.03-.45.22-.18,2.01-.13,1.53.37Z"/>
  <path class="st1" d="M96.43,231.86c-.22.07-1.68.58-1.64.01.48-.29,1.17-.33,1.64-.01Z"/>
  <path class="st1" d="M89.32,259.65c-.42.03-.9.46-1.29,0-.14-.39.39-.42.65-.46.29-.04.81.06.64.46Z"/>
  <path class="st1" d="M94.04,231.85c-.19.62-.96.24-1.37,0,.43-.14.93-.14,1.37,0Z"/>
  <path class="st1" d="M129.88,259.5c-.07.67-.92.18-1.26.17-.07-.33.24-.38.4-.44.38-.12.62.16.86.26Z"/>
  <path class="st1" d="M72.05,259.69c-.22-.07-.45-.24-.73-.02-.39.3-.72,0-1.02,0,.01-.42.53-.5.86-.5.38,0,.78.13.88.52Z"/>
  <path class="st1" d="M69.33,259.67c-.24.17-.43.02-.77-.06-.2-.05-.48.21-.66.05-.1-.39.35-.41.62-.44.36-.04.68.11.81.45Z"/>
  <path class="st1" d="M59.5,259.66c-.49.18-1,.3-1.43-.01.3-.01,1.62-.78,1.43.01Z"/>
  <path class="st1" d="M133.63,259.53c-.47.3-.92.15-1.39.15-.1-.46.29-.5.61-.54.43-.05.61.05.78.39Z"/>
  <path class="st1" d="M152.13,259.69c-.36,0-.62-.02-.93-.03-.01-.31.13-.41.35-.44.39-.06.64.11.58.47Z"/>
  <path class="st1" d="M54.93,259.72c-.31.09-.6.01-.91-.03-.03-.26.18-.44.36-.48.38-.1.64.15.55.51Z"/>
  <path class="st1" d="M142.28,231.86c-.16.07-.25.29-.44.32-.26.05-.47-.04-.5-.33.31-.1.66-.19.94,0Z"/>
  <path class="st1" d="M141.12,259.7h-1.2c-.11-.46.16-.57.6-.51.26.04.54.18.6.51Z"/>
  <path class="st1" d="M86.4,259.5c-.49-.26-.76.58-1.2.23-.08-.35.03-.55.36-.55.38,0,.67,0,.84.33Z"/>
  <path class="st1" d="M114.94,259.65c-.3.21-.64.05-.97.05-.09-.28.25-.26.5-.36.2-.07.55-.08.47.31Z"/>
  <path class="st1" d="M80.4,259.44c-.35.02-.62.65-.96.29-.06-.33-.02-.54.36-.56.3-.02.39.13.6.27Z"/>
  <path class="st1" d="M120.92,259.66c-.17-.07-.53.25-.71-.03-.07-.24.11-.43.38-.34.14.05.28.19.33.38Z"/>
  <path class="st1" d="M83.76,259.2c-.02.18.11.48-.11.71-.09.09-.29-.06-.37-.18,0-.1-.04-.25.01-.4s.3-.15.47-.13Z"/>
  <path class="st1" d="M84.72,259.73c-.12.24-.41.26-.48.05s-.06-.38-.06-.52c.11,0,.25-.07.4-.03.2.06.17.33.14.5Z"/>
  <path class="st1" d="M87.62,259.72c-.1.02-.17.18-.31.15-.08-.02-.14-.13-.19-.14.01-.12-.03-.27,0-.41.03-.12.21-.19.36-.12.19.08.12.35.14.52Z"/>
  <path class="st1" d="M94.1,259.71c-.08.05-.19.19-.31.14-.08-.03-.15-.1-.2-.14-.06-.12-.06-.25.01-.38.06-.11.2-.2.36-.12.17.08.24.33.14.51Z"/>
  <path class="st1" d="M116.18,259.68h-.74c.02-.09-.05-.28,0-.36.11-.19.4-.15.59-.11.16.04.25.31.15.47Z"/>
  <path class="st1" d="M146.16,259.73c-.1,0-.18.18-.29.11-.08-.05-.15-.09-.2-.14-.07-.12-.05-.25.02-.38.06-.11.19-.19.36-.12.19.08.13.35.12.53Z"/>
  <path class="st1" d="M147.16,259.71c-.14.17-.37.21-.52.03-.04-.13.02-.26.12-.3.2-.07.46.06.39.27Z"/>
  <path class="st1" d="M103.92,259.71c-.05.19-.2.3-.36.21-.13-.07-.16-.23-.12-.35.03-.08.11-.16.24-.13.07.09.19.16.24.27Z"/>
  <path class="st1" d="M149.06,259.71c-.08.05-.19.18-.31.15-.08-.02-.14-.14-.2-.14-.08-.14.02-.24.14-.27.2-.07.48.05.37.27Z"/>
  <path class="st1" d="M91.2,259.7c-.07,0-.17-.02-.24,0,.01-.1-.03-.23,0-.37.03-.16.2-.16.24,0,.03.14-.01.27,0,.37Z"/>
  <path class="st1" d="M148.08,259.7c-.08,0-.16,0-.24,0,.02-.1-.03-.23,0-.36.04-.16.2-.16.24,0,.03.14-.01.27,0,.37Z"/>
  <path class="st1" d="M119.99,259.62l-.23.08c-.03-.07-.05-.17-.13-.25-.19-.22,0-.29.14-.12s.32.15.21.3Z"/>
  <circle class="st1" cx="111.48" cy="259.32" r=".12"/>
  <circle class="st0" cx="51.24" cy="259.56" r=".12"/>
  <circle class="st0" cx="124.92" cy="259.56" r=".12"/>
  <path class="st1" d="M440.16,259.67c-1.88.32-4.11-.27-6,.02-.63-1.01,5.34-.28,5.54-.49.4-.02.56.13.46.47Z"/>
  <g>
    <path class="st2" d="M442.39,243.85c-.14-8.01-.26-12.62-9.23-12.26-42.61-.18-85.02.04-127.96-.02-46.6-.05-93.2.08-139.96-.05-28.16.02-56.21.1-84.29.06-5.78,0-11.53-.06-17.67-.03-3.09.06-6.88-.17-9.63.67-5.84,1.93-4.16,10.59-4.51,16.28.04,2.25.08,4.54.6,6.68.82,4.45,5.28,4.76,9.15,4.68,5.86,0,12.18-.04,18.21-.06,40.94.08,82.31.02,123.22.04,39.28.03,78.97.01,118.16.02,16.44.02,32.58-.04,49.07-.05,20.77.02,47.41.04,66.67,0,8.89.36,8.2-8.31,8.18-15.77v-.2Z"/>
    <path class="st2" d="M124.4,389.26c-2.6.14-9.82-.6-9.55,2.42,67.68,65.76,185.63,65.81,257.15,5.3,1.96-1.77,8.45-6.82,6.75-7.35-34.67-1.42-201.33.11-254.25-.38h-.1Z"/>
    <path class="st2" d="M51.31,273.28c-.42,1.99.77,7.2,1.47,10.86,1.45,5.75,2.14,10.26,3.8,14.16,18.43,2.5,358.35.05,377.35.86.81-.02,1.48-2.01,1.74-2.94,1.57-5.28,3.83-14.83,4.72-20.97.2-.92.27-1.83.42-2.62.06-.31.09-.69.12-.94.03-.29.02-.46-.01-.54-.03-.06-.07-.08-.13-.08-68.49-.04-224.99-.02-304.34-.02-40.49,0-71.93,0-82.97,0-1.29.02-1.97.49-2.17,2.13v.1Z"/>
    <path class="st2" d="M439.83,218.43c1.71-3.96-.45-10.12-1.23-14.52-.84-3.76-1.66-7.13-2.25-9-.57-1.48-.57-2.16-1.53-2.47-77.25-.07-343.66.02-377.77,0-1.47-.02-1.66,2.43-2.23,3.87-1.11,4.3-3.08,11.54-3.72,16.76-.67,5.01,1.22,7.41,5.5,7.4,7.08.06,15.03,0,23.52.03,61.51,0,147.51,0,216.53,0,47.99,0,99.55,0,134.36,0,3.7-.09,7.18.45,8.78-1.96l.06-.09Z"/>
    <path class="st2" d="M61.15,312.46c-1.28,3.77,1.6,8,2.94,11.54,2.61,5.46,4.67,11.31,10.2,13.46,2.58,1.07,5.95,1.18,8.95,1.16,110.39-1.26,224.93,2.45,334.38-1.34,5.04-2.2,6.99-7.47,9.47-12.61,1.24-2.74,2.63-5.64,3.43-8.49.9-3.18.13-5.66-3.79-5.76-55.48-.19-149.75-.03-225.22-.09-15.94,0-30.86,0-46.93,0-30.23.01-62.31-.02-87.66.02-2.78.05-4.92.53-5.72,2.02l-.05.09Z"/>
    <path class="st2" d="M202.28,181.12c71.36-.1,161.29,1.07,226.75-.67,4.64-.55-8.47-24.35-9.67-26.25-17.53-3.51-323.21-.16-345.82-1.25-.63-.08-1.68,1.41-2.19,2.33-1.7,2.85-5.09,9.85-7.05,14.46-1.61,3.77-3.04,7.35-3.47,9.18-.16.59-.27,1.24-.03,1.74,6.33.74,27.66-.13,59.17.24,25.9.06,55.43.15,82.08.22h.21Z"/>
    <path class="st2" d="M411.02,351.54c-.1-1.61-3.11-1.58-4.76-1.58-47.25-.38-193.16.09-205.72-.04-29.51.05-92.58-.27-116.57.02-1.54.07-3.55,0-3.59,1.74.36,2.37,2.15,4.37,3.48,6.39,4.23,5.94,10.31,13.63,14.94,18.43,20.8,4.32,269.52.26,291.71,1.54,2.13-.75,5.14-4.75,6.94-6.75,3.58-4.2,7.11-8.68,10.32-13.19,1.35-1.89,3.17-4.28,3.26-6.48v-.08Z"/>
    <path class="st2" d="M370.34,94.32c-70.55-61.1-184.53-59.13-253.64,3.67-2.44,2.32-3.94,3.47-3.81,4.2,19.09.04,248.08.68,265.74-.22-.58-1.39-5.78-5.4-8.14-7.53l-.15-.13Z"/>
    <path class="st2" d="M410.97,139.78c-3.4-5.64-7.72-11.26-11.87-16.53-3.16-3.88-5.84-7.09-9.64-8.63-70.29-2.8-212.3-.06-282.04-.97-2.08.05-4.08.35-6.01,1.26-2.4,1.11-4.58,3.12-6.38,5.15-3.68,4.22-7.21,8.8-10.51,13.46-1.59,2.25-3.89,5.32-4.53,7.65,54.69,1.53,202.8.15,270.35.62,31.45-.03,54.55-.07,60.45-.2.98-.08.76-.57.23-1.74l-.04-.08Z"/>
  </g>
</svg>